<mxfile host="app.diagrams.net" modified="2023-11-25T08:17:55.804Z" agent="Mozilla/5.0 (Windows NT 10.0; Win64; x64) AppleWebKit/537.36 (KHTML, like Gecko) Chrome/92.0.4515.159 Safari/537.36" version="22.1.4" etag="iGv2F2j1A2FUeq22NNT1" type="github">
  <diagram name="第 1 页" id="O-GNi57xOglbci2jKU-Z">
    <mxGraphModel>
      <root>
        <mxCell id="0" />
        <mxCell id="1" parent="0" />
      </root>
    </mxGraphModel>
  </diagram>
</mxfile>
